<svg width="100" height="20" viewBox="0 0 100 20" fill="none" xmlns="http://www.w3.org/2000/svg">
<path d="M17.7363 6.89648L12.7773 6.17578L10.5605 1.68164C10.4999 1.55859 10.4003 1.45898 10.2773 1.39844C9.9687 1.24609 9.5937 1.37305 9.4394 1.68164L7.2226 6.17578L2.26362 6.89648C2.1269 6.91602 2.0019 6.98047 1.9062 7.07812C1.7905 7.19704 1.72674 7.35703 1.72894 7.52293C1.73113 7.68883 1.7991 7.84708 1.91791 7.96289L5.5058 11.4609L4.65815 16.4004C4.63827 16.5153 4.65099 16.6335 4.69485 16.7415C4.73872 16.8496 4.81198 16.9431 4.90633 17.0117C5.00068 17.0802 5.11234 17.1209 5.22866 17.1292C5.34497 17.1375 5.46128 17.113 5.5644 17.0586L9.99995 14.7266L14.4355 17.0586C14.5566 17.123 14.6972 17.1445 14.832 17.1211C15.1718 17.0625 15.4003 16.7402 15.3417 16.4004L14.4941 11.4609L18.082 7.96289C18.1796 7.86719 18.2441 7.74219 18.2636 7.60547C18.3164 7.26367 18.0781 6.94727 17.7363 6.89648V6.89648Z" fill="#E7C825"/>
<path d="M57.7363 6.89648L52.7773 6.17578L50.5605 1.68164C50.4999 1.55859 50.4003 1.45898 50.2773 1.39844C49.9687 1.24609 49.5937 1.37305 49.4394 1.68164L47.2226 6.17578L42.2636 6.89648C42.1269 6.91602 42.0019 6.98047 41.9062 7.07812C41.7905 7.19704 41.7267 7.35703 41.7289 7.52293C41.7311 7.68883 41.7991 7.84708 41.9179 7.96289L45.5058 11.4609L44.6581 16.4004C44.6383 16.5153 44.651 16.6335 44.6949 16.7415C44.7387 16.8496 44.812 16.9431 44.9063 17.0117C45.0007 17.0802 45.1123 17.1209 45.2287 17.1292C45.345 17.1375 45.4613 17.113 45.5644 17.0586L49.9999 14.7266L54.4355 17.0586C54.5566 17.123 54.6972 17.1445 54.832 17.1211C55.1718 17.0625 55.4003 16.7402 55.3417 16.4004L54.4941 11.4609L58.082 7.96289C58.1796 7.86719 58.2441 7.74219 58.2636 7.60547C58.3164 7.26367 58.0781 6.94727 57.7363 6.89648V6.89648Z" fill="#E7C825"/>
<path d="M37.7363 6.89648L32.7773 6.17578L30.5605 1.68164C30.4999 1.55859 30.4003 1.45898 30.2773 1.39844C29.9687 1.24609 29.5937 1.37305 29.4394 1.68164L27.2226 6.17578L22.2636 6.89648C22.1269 6.91602 22.0019 6.98047 21.9062 7.07812C21.7905 7.19704 21.7267 7.35703 21.7289 7.52293C21.7311 7.68883 21.7991 7.84708 21.9179 7.96289L25.5058 11.4609L24.6581 16.4004C24.6383 16.5153 24.651 16.6335 24.6949 16.7415C24.7387 16.8496 24.812 16.9431 24.9063 17.0117C25.0007 17.0802 25.1123 17.1209 25.2287 17.1292C25.345 17.1375 25.4613 17.113 25.5644 17.0586L29.9999 14.7266L34.4355 17.0586C34.5566 17.123 34.6972 17.1445 34.832 17.1211C35.1718 17.0625 35.4003 16.7402 35.3417 16.4004L34.4941 11.4609L38.082 7.96289C38.1796 7.86719 38.2441 7.74219 38.2636 7.60547C38.3164 7.26367 38.0781 6.94727 37.7363 6.89648V6.89648Z" fill="#E7C825"/>
<path d="M77.7363 6.89648L72.7773 6.17578L70.5605 1.68164C70.4999 1.55859 70.4003 1.45898 70.2773 1.39844C69.9687 1.24609 69.5937 1.37305 69.4394 1.68164L67.2226 6.17578L62.2636 6.89648C62.1269 6.91602 62.0019 6.98047 61.9062 7.07812C61.7905 7.19704 61.7267 7.35703 61.7289 7.52293C61.7311 7.68883 61.7991 7.84708 61.9179 7.96289L65.5058 11.4609L64.6581 16.4004C64.6383 16.5153 64.651 16.6335 64.6949 16.7415C64.7387 16.8496 64.812 16.9431 64.9063 17.0117C65.0007 17.0802 65.1123 17.1209 65.2287 17.1292C65.345 17.1375 65.4613 17.113 65.5644 17.0586L69.9999 14.7266L74.4355 17.0586C74.5566 17.123 74.6972 17.1445 74.832 17.1211C75.1718 17.0625 75.4003 16.7402 75.3417 16.4004L74.4941 11.4609L78.082 7.96289C78.1796 7.86719 78.2441 7.74219 78.2636 7.60547C78.3164 7.26367 78.0781 6.94727 77.7363 6.89648V6.89648Z" fill="#E7C825"/>
<path d="M97.7363 6.89648L92.7773 6.17578L90.5605 1.68164C90.4999 1.55859 90.4003 1.45898 90.2773 1.39844C89.9687 1.24609 89.5937 1.37305 89.4394 1.68164L87.2226 6.17578L82.2636 6.89648C82.1269 6.91602 82.0019 6.98047 81.9062 7.07812C81.7905 7.19704 81.7267 7.35703 81.7289 7.52293C81.7311 7.68883 81.7991 7.84708 81.9179 7.96289L85.5058 11.4609L84.6581 16.4004C84.6383 16.5153 84.651 16.6335 84.6949 16.7415C84.7387 16.8496 84.812 16.9431 84.9063 17.0117C85.0007 17.0802 85.1123 17.1209 85.2287 17.1292C85.345 17.1375 85.4613 17.113 85.5644 17.0586L89.9999 14.7266L94.4355 17.0586C94.5566 17.123 94.6972 17.1445 94.832 17.1211C95.1718 17.0625 95.4003 16.7402 95.3417 16.4004L94.4941 11.4609L98.082 7.96289C98.1796 7.86719 98.2441 7.74219 98.2636 7.60547C98.3164 7.26367 98.0781 6.94727 97.7363 6.89648V6.89648Z" fill="#E7C825"/>
</svg>
